<svg version="1.1" xmlns="http://www.w3.org/2000/svg" xmlns:xlink="http://www.w3.org/1999/xlink" width="562.5633" height="231.46144" viewBox="0,0,562.5633,231.46144"><g transform="translate(60,-57.24653)"><g data-paper-data="{&quot;isPaintingLayer&quot;:true}" fill-rule="nonzero" stroke-linejoin="miter" stroke-miterlimit="10" stroke-dashoffset="0" style="mix-blend-mode: normal"><path d="M81.01216,121.53999c0,0 112.93567,18.32615 190.83642,-18.98408c14.44808,-6.91985 98.43502,-50.81007 155.04592,-29.54217c41.30563,15.51793 75.7299,77.67332 62.97225,118.68375c-13.86485,44.5696 -78.05799,67.13398 -108.1659,55.56594" fill="none" stroke="#2c2f33" stroke-width="20" stroke-linecap="round" stroke-dasharray=""/><path d="M324.18,185.43l24.87,8.84l6.22,-14.37l21.59,7.45c23.02,7.95 36.28,31.23 31.33,54.64l-6.06,16.17c-12.22,22.18 -39.68,32.37 -63.81,22.44l-22.59,-9.31l6.98,-16.12l-25.61,-10.23c-4.16,-1.67 -5.91,-6.47 -3.97,-10.7c1.93,-4.21 6.83,-6.31 10.97,-4.7l25.41,9.86l13.17,-30.43l-25.07,-9.17c-4.07,-1.48 -5.87,-5.91 -4.05,-9.87c1.82,-3.93 6.55,-5.94 10.62,-4.5z" fill="#7289da" stroke="#2c2f33" stroke-width="8.6" stroke-linecap="butt" stroke-dasharray="0"/><g stroke-linecap="butt"><path d="M321.54,182.31c1.18,-0.01 2.61,0.25 3.16,0.57c0.55,0.32 5.15,2.03 10.21,3.79c5.06,1.77 9.92,3.45 10.79,3.74c1.41,0.46 1.58,0.79 1.58,3.1c0,1.43 -0.13,2.59 -0.29,2.59c-0.16,0 -5.72,-1.94 -12.37,-4.31c-6.64,-2.38 -12.6,-4.32 -13.23,-4.32c-0.63,0 -1.93,0.39 -2.87,0.87c-0.95,0.47 -1.99,1.38 -2.31,2.01c-0.31,0.63 -0.58,1.86 -0.6,2.73c-0.01,0.87 0.44,2.17 1.01,2.88c0.71,0.89 5.17,2.81 14.26,6.15c7.28,2.67 13.18,5.06 13.11,5.32c-0.06,0.25 -1.05,2.66 -2.19,5.35c-1.15,2.69 -2.85,6.45 -3.78,8.35c-0.94,1.89 -1.69,3.9 -1.69,4.45c0.01,0.56 -1,3.15 -2.24,5.76c-1.24,2.61 -2.66,6.1 -3.16,7.76c-0.5,1.66 -0.97,3.02 -1.05,3.02c-0.08,0.01 -6.23,-2.33 -13.67,-5.19c-8.1,-3.11 -14.32,-5.18 -15.53,-5.16c-1.1,0.01 -2.56,0.47 -3.24,1.02c-0.67,0.54 -1.51,1.57 -1.87,2.28c-0.35,0.72 -0.64,2.08 -0.64,3.02c0,1.02 0.54,2.28 1.29,3.06c0.75,0.76 6.77,3.52 14.12,6.47c7.04,2.83 12.81,5.27 12.81,5.43c-0.01,0.16 -0.86,1.4 -1.89,2.75c-1.42,1.85 -1.95,2.23 -2.17,1.53c-0.18,-0.57 -4.83,-2.74 -12.37,-5.76c-9.84,-3.93 -12.42,-5.2 -13.95,-6.85c-1.03,-1.11 -2.17,-3.12 -2.55,-4.47c-0.53,-1.91 -0.52,-3.01 0.04,-5.03c0.4,-1.43 1.3,-3.37 2.01,-4.32c0.72,-0.94 2.45,-2.3 3.85,-3.01c1.43,-0.72 3.62,-1.29 4.99,-1.29c1.7,-0.01 6.21,1.44 27.07,9.48l5.38,-12.37c2.96,-6.8 5.38,-12.58 5.38,-12.85c0,-0.27 -5.35,-2.47 -11.88,-4.89c-8.68,-3.22 -12.37,-4.87 -13.68,-6.13c-0.99,-0.95 -2.08,-2.63 -2.43,-3.74c-0.35,-1.11 -0.49,-3.18 -0.3,-4.6c0.21,-1.66 0.93,-3.31 2.01,-4.6c0.93,-1.11 2.81,-2.59 4.2,-3.29c1.38,-0.71 3.49,-1.29 4.68,-1.3z" fill="#2c2f33" stroke="none" stroke-width="1" stroke-dasharray=""/><path d="M321.1,187.48c0.64,-0.02 6.85,1.96 13.81,4.39c6.96,2.44 12.72,4.45 12.8,4.48c0.08,0.02 -0.31,2.09 -0.86,4.6c-0.56,2.51 -1.27,4.93 -1.59,5.36c-0.47,0.66 -3.01,-0.09 -14.09,-4.13c-9.35,-3.41 -13.84,-5.33 -14.55,-6.22c-0.57,-0.71 -1.02,-2.01 -1.01,-2.88c0.02,-0.87 0.29,-2.1 0.6,-2.73c0.32,-0.63 1.29,-1.53 2.16,-1.99c0.87,-0.46 2.1,-0.86 2.73,-0.88zM300.68,231.77c1.21,-0.02 7.4,2.05 15.53,5.18c7.44,2.87 13.59,5.33 13.67,5.48c0.08,0.15 -1.29,2.53 -6.23,10.33l-13.35,-5.28c-9.08,-3.59 -13.69,-5.71 -14.39,-6.62c-0.56,-0.73 -1.02,-2.04 -1,-2.91c0.01,-0.87 0.31,-2.16 0.66,-2.88c0.36,-0.71 1.2,-1.74 1.87,-2.28c0.68,-0.55 2.14,-1.01 3.24,-1.02z" fill="#99aab5" stroke="none" stroke-width="1" stroke-dasharray=""/><path d="M348.55,192.05366l3.51169,1.67901l-8.14,18.81634l-3.51169,-1.86535z" fill="#2c2f33" stroke="#2c2f33" stroke-width="3.5" stroke-dasharray="0"/><path d="M328.73,237.03l4.0807,1.09l-8.36535,19.53535l-3.36535,-1.78535z" fill="#2c2f33" stroke="#2c2f33" stroke-width="3.5" stroke-dasharray="0"/></g><g stroke="none" stroke-width="1" stroke-linecap="butt" stroke-dasharray=""><g><path d="M20.48,79.9c35.53,0 64.68,0.07 64.79,0.17c0.11,0.09 0.89,0.4 1.74,0.68c0.84,0.27 2.26,0.86 3.15,1.31c0.9,0.44 2.33,1.33 3.19,1.97c0.86,0.64 2.13,1.81 2.81,2.61c0.68,0.79 1.5,1.84 1.81,2.33c0.32,0.49 0.8,1.35 1.09,1.9c0.28,0.55 0.85,1.91 2.01,5.03v128.97l-0.7,1.95c-0.38,1.08 -0.95,2.46 -1.26,3.08c-0.31,0.62 -0.89,1.62 -1.29,2.24c-0.4,0.61 -1.17,1.62 -1.72,2.23c-0.55,0.62 -1.74,1.69 -2.65,2.38c-0.92,0.69 -2.27,1.56 -3.01,1.93c-0.73,0.37 -2.24,1.01 -5.36,2.18h-128.86l-1.9,-0.64c-1.04,-0.36 -2.71,-1.06 -3.69,-1.57c-0.98,-0.5 -2.52,-1.5 -3.41,-2.21c-0.89,-0.7 -2.24,-2.06 -2.99,-3.02c-0.76,-0.95 -1.73,-2.44 -2.16,-3.3c-0.43,-0.86 -1.07,-2.39 -2.07,-5.25v-128.74l0.68,-2.02c0.38,-1.1 1.09,-2.77 1.58,-3.69c0.5,-0.92 1.5,-2.41 2.23,-3.3c0.73,-0.89 1.96,-2.12 2.73,-2.73c0.77,-0.62 2.25,-1.57 3.3,-2.12c1.04,-0.54 2.55,-1.2 3.35,-1.46c0.8,-0.25 1.58,-0.46 1.74,-0.46c0.15,0 0.28,-0.1 0.28,-0.22c0,-0.15 21.68,-0.22 64.59,-0.23z" fill="#23272a"/><path d="M21.21,85.08c55.3,-0.03 62.22,0.01 63.42,0.32c0.74,0.19 1.99,0.65 2.79,1.02c0.8,0.37 2.11,1.17 2.91,1.77c0.8,0.61 1.76,1.48 2.14,1.94c0.37,0.47 0.99,1.35 1.36,1.97c0.37,0.61 0.97,1.82 1.96,4.25l0.02,128.18l-0.69,1.68c-0.39,0.92 -0.99,2.13 -1.35,2.68c-0.35,0.56 -0.89,1.35 -1.2,1.76c-0.31,0.41 -1.26,1.28 -2.13,1.93c-0.86,0.65 -2.12,1.44 -2.79,1.75c-0.68,0.31 -1.79,0.75 -2.46,0.97c-1.19,0.4 -3.62,0.42 -128.3,0.42l-1.45,-0.52c-0.8,-0.29 -1.98,-0.82 -2.63,-1.18c-0.64,-0.36 -1.72,-1.08 -2.39,-1.6c-0.67,-0.53 -1.69,-1.56 -2.26,-2.3c-0.57,-0.73 -1.25,-1.74 -1.5,-2.23c-0.25,-0.5 -0.7,-1.6 -1.52,-4.03v-126.84l0.57,-1.68c0.32,-0.92 0.84,-2.13 1.16,-2.68c0.32,-0.56 1.02,-1.56 1.55,-2.24c0.52,-0.68 1.59,-1.69 2.36,-2.26c0.78,-0.57 1.92,-1.29 2.53,-1.59c0.62,-0.31 1.53,-0.69 2.02,-0.86c0.49,-0.16 1.55,-0.36 2.35,-0.44c0.8,-0.09 29.39,-0.17 63.53,-0.19z" fill="#2c2f33"/></g><path d="M-29.05,170.43l-2.9,7.07h-10.79l15.44,-34.95h11.67l15.38,34.95h-10.79l-2.84,-7.07zM-16.3,164.33l-5.11,-12.75l-5.17,12.75zM22.32,142.55c9.39,0 12.33,6.86 12.33,10.84c0,5.94 -4.28,8 -5.73,8.72c1.97,1.19 3.05,1.86 5.79,7.8l3.51,7.59h-11.31l-2.74,-6.2c-3.09,-7.02 -4.9,-7.43 -8.05,-7.43h-1.19v13.63h-10.53v-34.95zM14.93,149.26v8.41h2.27c5.01,0 6.72,-0.82 6.72,-4.07c0,-3.26 -2.07,-4.34 -6.77,-4.34zM43.02,142.55h9.55l10.74,13.11l10.79,-13.11h9.55v34.95h-10.53v-20.24l-9.5,11.72h-0.83l-9.55,-11.72v20.24h-10.22z" fill="#99aab5"/></g></g></g></svg>