<svg xmlns="http://www.w3.org/2000/svg" viewBox="0 0 789 172" width="789" height="172">
	<style>
		tspan { white-space:pre }
	</style>
	<path id="KCK  " fill="#fe84e8" d="M105.17 3.03L106.79 4.65L106.79 6.27L105.17 7.89L103.55 6.27L101.93 6.27L87.36 15.98L85.74 15.98Q85.74 11.7 105.17 3.03ZM42.04 6.27L43.66 20.84Q46.9 20.84 48.51 11.13L50.13 11.13L51.75 17.6L46.9 43.5L64.7 30.55L66.32 30.55L46.9 48.35L46.9 49.97L84.13 22.46L85.74 24.07Q107.55 6.27 114.88 6.27L116.5 6.27L118.12 12.74L105.17 25.69L106.79 25.69Q110.02 19.22 116.5 19.22L118.12 20.84L118.12 19.22L116.5 17.6L118.12 15.98L122.97 15.98L124.59 20.84Q112.4 26.55 67.94 62.92Q78.89 86.82 106.79 127.67L106.79 130.91L105.17 142.24L103.55 140.62L101.93 140.62L100.31 147.09L93.84 147.09L93.84 143.85L92.22 143.85L92.22 147.09L88.98 147.09Q88.98 141.38 53.37 87.2L50.13 77.49L42.04 79.11Q39.95 118.05 31.85 127.67L31.85 129.29L15.67 127.67L15.67 122.81L17.28 111.48Q12.43 111.48 12.43 101.77Q15.09 85.58 17.76 85.58L16.14 83.96Q21 39.4 25.85 30.55L24.23 25.69L29.09 12.74L29.09 11.13L27.47 9.51L27.47 7.89L30.71 7.89L30.71 19.22L32.33 19.22L33.95 14.36L32.33 12.74L32.33 11.13Q33.95 6.27 42.04 6.27ZM77.65 22.46L84.13 15.98L85.74 15.98L79.27 22.46L77.65 22.46ZM30.71 24.07L29.09 24.07L27.47 33.79L27.47 40.26L29.09 40.26L30.71 25.69L30.71 24.07ZM66.32 30.55L76.03 22.46L77.65 22.46L67.94 30.55L66.32 30.55ZM98.69 28.93L97.07 28.93L90.6 33.79L88.98 35.41L88.98 37.02L90.6 37.02L97.07 32.17L98.69 30.55L98.69 28.93ZM74.41 126.05L69.56 121.19L71.18 121.19L76.03 126.05L74.41 126.05ZM82.51 143.85L76.03 126.05Q80.13 126.05 84.13 142.24L84.13 143.85L82.51 143.85ZM159.63 13.6L174.2 10.36L175.82 10.36Q199.33 10.36 211.43 29.79L211.43 31.41L208.19 31.41L209.81 33.02L209.81 34.64Q200.1 33.5 200.1 31.41Q162.3 31.41 143.44 70.25L140.21 81.58L145.06 112.34L149.92 112.34Q170.1 112.34 195.24 83.2L196.86 83.2L196.86 84.82Q179.63 109.67 158.01 113.96L158.01 115.58L159.63 115.58Q176.58 115.58 201.72 86.44L206.57 92.92L206.57 97.77Q206.57 103.01 182.29 122.05L180.67 123.67L179.05 123.67L179.05 126.91Q206.57 113.48 206.57 107.48L209.81 107.48L209.81 109.1Q189.43 133.38 162.87 133.38L162.87 135L170.96 135L177.44 133.38L179.05 133.38L179.05 135L159.63 138.14Q147.35 138.14 133.73 120.43L133.73 122.05L141.83 135L141.83 136.52L136.97 136.52Q121.93 126.24 119.16 110.72L117.55 89.68Q117.55 49.12 133.73 37.88L133.73 39.5L124.02 55.69L124.02 57.3L125.64 57.3Q125.64 41.88 166.1 13.6L161.25 15.22L159.63 15.22L159.63 13.6ZM156.39 16.84L158.01 16.84L158.01 18.46L146.68 23.31Q146.68 20.08 156.39 16.84ZM133.73 36.26L141.83 28.17L141.83 29.79L133.73 37.88L133.73 36.26ZM124.02 105.86L122.4 105.86L122.4 110.72L124.02 117.19L125.64 117.19L125.64 115.58L124.02 105.86ZM307.69 3.03L309.31 4.65L309.31 6.27L307.69 7.89L306.07 6.27L304.45 6.27L289.88 15.98L288.27 15.98Q288.27 11.7 307.69 3.03ZM244.56 6.27L246.18 20.84Q249.42 20.84 251.04 11.13L252.66 11.13L254.27 17.6L249.42 43.5L267.22 30.55L268.84 30.55L249.42 48.35L249.42 49.97L286.65 22.46L288.27 24.07Q310.07 6.27 317.4 6.27L319.02 6.27L320.64 12.74L307.69 25.69L309.31 25.69Q312.55 19.22 319.02 19.22L320.64 20.84L320.64 19.22L319.02 17.6L320.64 15.98L325.49 15.98L327.11 20.84Q314.93 26.55 270.46 62.92Q281.41 86.82 309.31 127.67L309.31 130.91L307.69 142.24L306.07 140.62L304.45 140.62L302.83 147.09L296.36 147.09L296.36 143.85L294.74 143.85L294.74 147.09L291.5 147.09Q291.5 141.38 255.89 87.2L252.66 77.49L244.56 79.11Q242.47 118.05 234.37 127.67L234.37 129.29L218.19 127.67L218.19 122.81L219.81 111.48Q214.95 111.48 214.95 101.77Q217.62 85.58 220.28 85.58L218.66 83.96Q223.52 39.4 228.38 30.55L226.76 25.69L231.61 12.74L231.61 11.13L229.99 9.51L229.99 7.89L233.23 7.89L233.23 19.22L234.85 19.22L236.47 14.36L234.85 12.74L234.85 11.13Q236.47 6.27 244.56 6.27ZM280.17 22.46L286.65 15.98L288.27 15.98L281.79 22.46L280.17 22.46ZM233.23 24.07L231.61 24.07L229.99 33.79L229.99 40.26L231.61 40.26L233.23 25.69L233.23 24.07ZM268.84 30.55L278.55 22.46L280.17 22.46L270.46 30.55L268.84 30.55ZM301.21 28.93L299.6 28.93L293.12 33.79L291.5 35.41L291.5 37.02L293.12 37.02L299.6 32.17L301.21 30.55L301.21 28.93ZM276.94 126.05L272.08 121.19L273.7 121.19L278.55 126.05L276.94 126.05ZM285.03 143.85L278.55 126.05Q282.65 126.05 286.65 142.24L286.65 143.85L285.03 143.85Z" />
	<path id="KCK Proxy " fill="#8fffff" d="M93.17 0.03L94.79 1.65L94.79 3.27L93.17 4.89L91.55 3.27L89.93 3.27L75.36 12.98L73.74 12.98Q73.74 8.7 93.17 0.03ZM30.04 3.27L31.66 17.84Q34.9 17.84 36.51 8.13L38.13 8.13L39.75 14.6L34.9 40.5L52.7 27.55L54.32 27.55L34.9 45.35L34.9 46.97L72.13 19.46L73.74 21.07Q95.55 3.27 102.88 3.27L104.5 3.27L106.12 9.74L93.17 22.69L94.79 22.69Q98.02 16.22 104.5 16.22L106.12 17.84L106.12 16.22L104.5 14.6L106.12 12.98L110.97 12.98L112.59 17.84Q100.4 23.55 55.94 59.92Q66.89 83.82 94.79 124.67L94.79 127.91L93.17 139.24L91.55 137.62L89.93 137.62L88.31 144.09L81.84 144.09L81.84 140.85L80.22 140.85L80.22 144.09L76.98 144.09Q76.98 138.38 41.37 84.2L38.13 74.49L30.04 76.11Q27.95 115.05 19.85 124.67L19.85 126.29L3.67 124.67L3.67 119.81L5.28 108.48Q0.43 108.48 0.43 98.77Q3.09 82.58 5.76 82.58L4.14 80.96Q9 36.4 13.85 27.55L12.23 22.69L17.09 9.74L17.09 8.13L15.47 6.51L15.47 4.89L18.71 4.89L18.71 16.22L20.33 16.22L21.95 11.36L20.33 9.74L20.33 8.13Q21.95 3.27 30.04 3.27ZM65.65 19.46L72.13 12.98L73.74 12.98L67.27 19.46L65.65 19.46ZM18.71 21.07L17.09 21.07L15.47 30.79L15.47 37.26L17.09 37.26L18.71 22.69L18.71 21.07ZM54.32 27.55L64.03 19.46L65.65 19.46L55.94 27.55L54.32 27.55ZM86.69 25.93L85.07 25.93L78.6 30.79L76.98 32.41L76.98 34.02L78.6 34.02L85.07 29.17L86.69 27.55L86.69 25.93ZM62.41 123.05L57.56 118.19L59.18 118.19L64.03 123.05L62.41 123.05ZM70.51 140.85L64.03 123.05Q68.13 123.05 72.13 139.24L72.13 140.85L70.51 140.85ZM147.63 10.6L162.2 7.36L163.82 7.36Q187.33 7.36 199.43 26.79L199.43 28.41L196.19 28.41L197.81 30.02L197.81 31.64Q188.1 30.5 188.1 28.41Q150.3 28.41 131.44 67.25L128.21 78.58L133.06 109.34L137.92 109.34Q158.1 109.34 183.24 80.2L184.86 80.2L184.86 81.82Q167.63 106.67 146.01 110.96L146.01 112.58L147.63 112.58Q164.58 112.58 189.72 83.44L194.57 89.92L194.57 94.77Q194.57 100.01 170.29 119.05L168.67 120.67L167.05 120.67L167.05 123.91Q194.57 110.48 194.57 104.48L197.81 104.48L197.81 106.1Q177.43 130.38 150.87 130.38L150.87 132L158.96 132L165.44 130.38L167.05 130.38L167.05 132L147.63 135.14Q135.35 135.14 121.73 117.43L121.73 119.05L129.83 132L129.83 133.52L124.97 133.52Q109.93 123.24 107.16 107.72L105.55 86.68Q105.55 46.12 121.73 34.88L121.73 36.5L112.02 52.69L112.02 54.3L113.64 54.3Q113.64 38.88 154.1 10.6L149.25 12.22L147.63 12.22L147.63 10.6ZM144.39 13.84L146.01 13.84L146.01 15.46L134.68 20.31Q134.68 17.08 144.39 13.84ZM121.73 33.26L129.83 25.17L129.83 26.79L121.73 34.88L121.73 33.26ZM112.02 102.86L110.4 102.86L110.4 107.72L112.02 114.19L113.64 114.19L113.64 112.58L112.02 102.86ZM295.69 0.03L297.31 1.65L297.31 3.27L295.69 4.89L294.07 3.27L292.45 3.27L277.88 12.98L276.27 12.98Q276.27 8.7 295.69 0.03ZM232.56 3.27L234.18 17.84Q237.42 17.84 239.04 8.13L240.66 8.13L242.27 14.6L237.42 40.5L255.22 27.55L256.84 27.55L237.42 45.35L237.42 46.97L274.65 19.46L276.27 21.07Q298.07 3.27 305.4 3.27L307.02 3.27L308.64 9.74L295.69 22.69L297.31 22.69Q300.55 16.22 307.02 16.22L308.64 17.84L308.64 16.22L307.02 14.6L308.64 12.98L313.49 12.98L315.11 17.84Q302.93 23.55 258.46 59.92Q269.41 83.82 297.31 124.67L297.31 127.91L295.69 139.24L294.07 137.62L292.45 137.62L290.83 144.09L284.36 144.09L284.36 140.85L282.74 140.85L282.74 144.09L279.5 144.09Q279.5 138.38 243.89 84.2L240.66 74.49L232.56 76.11Q230.47 115.05 222.37 124.67L222.37 126.29L206.19 124.67L206.19 119.81L207.81 108.48Q202.95 108.48 202.95 98.77Q205.62 82.58 208.28 82.58L206.66 80.96Q211.52 36.4 216.38 27.55L214.76 22.69L219.61 9.74L219.61 8.13L217.99 6.51L217.99 4.89L221.23 4.89L221.23 16.22L222.85 16.22L224.47 11.36L222.85 9.74L222.85 8.13Q224.47 3.27 232.56 3.27ZM268.17 19.46L274.65 12.98L276.27 12.98L269.79 19.46L268.17 19.46ZM221.23 21.07L219.61 21.07L217.99 30.79L217.99 37.26L219.61 37.26L221.23 22.69L221.23 21.07ZM256.84 27.55L266.55 19.46L268.17 19.46L258.46 27.55L256.84 27.55ZM289.21 25.93L287.6 25.93L281.12 30.79L279.5 32.41L279.5 34.02L281.12 34.02L287.6 29.17L289.21 27.55L289.21 25.93ZM264.94 123.05L260.08 118.19L261.7 118.19L266.55 123.05L264.94 123.05ZM273.03 140.85L266.55 123.05Q270.65 123.05 274.65 139.24L274.65 140.85L273.03 140.85Z" />
	<path id="KCK Proxy " fill="#ffffff" d="M368.94 132L368.94 14.7L398.64 14.7Q414.24 14.7 422.64 19.2Q438.39 27.9 438.39 48.6Q438.39 69.75 421.89 78.15Q413.64 82.5 397.89 82.5L378.69 82.5L378.69 132L368.94 132ZM378.69 23.55L378.69 73.65L396.39 73.65Q408.54 73.65 414.09 71.7Q428.64 66.45 428.64 48.6Q428.64 29.25 411.69 24.75Q407.04 23.55 396.39 23.55L378.69 23.55ZM468.39 82.95L468.39 132L459.09 132L459.09 44.4L468.39 44.4L468.39 57.15Q477.69 42 495.24 42Q496.14 42 497.49 42L497.49 50.55Q495.99 50.4 494.94 50.4Q485.64 50.4 478.89 55.65Q470.79 61.8 468.99 72.6Q468.39 76.2 468.39 82.95ZM555.24 42Q574.29 42 586.44 55.5Q597.99 68.25 597.99 88.2Q597.99 108.15 586.44 120.9Q574.29 134.4 555.39 134.4Q536.19 134.4 524.04 120.9Q512.49 108.15 512.49 87.6Q512.49 74.1 518.49 63.15Q524.19 52.8 534.69 47.1Q543.99 42 555.24 42ZM555.24 50.4Q539.04 50.4 529.44 62.7Q521.79 72.45 521.79 88.65Q521.79 105.3 530.79 115.35Q540.39 126 555.24 126Q571.44 126 581.04 113.7Q588.69 103.95 588.69 88.2Q588.69 71.1 579.69 61.05Q570.09 50.4 555.24 50.4ZM622.14 44.4L646.14 79.35L669.99 44.4L680.34 44.4L651.39 86.4L682.74 132L672.39 132L646.14 93.6L619.74 132L609.39 132L640.74 86.4L611.79 44.4L622.14 44.4ZM705.09 171.9L723.09 126.15L690.69 44.4L700.59 44.4L727.89 114L755.49 44.4L765.39 44.4L714.39 171.9L705.09 171.9Z" />
	<path id="       ______ " fill="#ffffff" d="M339 143.25L414 143.25L414 150.75L339 150.75L339 143.25ZM414 143.25L489 143.25L489 150.75L414 150.75L414 143.25ZM489 143.25L564 143.25L564 150.75L489 150.75L489 143.25ZM564 143.25L639 143.25L639 150.75L564 150.75L564 143.25ZM639 143.25L714 143.25L714 150.75L639 150.75L639 143.25ZM714 143.25L789 143.25L789 150.75L714 150.75L714 143.25Z" />
</svg>