<svg version="1.2" baseProfile="tiny-ps" xmlns="http://www.w3.org/2000/svg" viewBox="0 0 830 720" width="830" height="720">
	<title>New Project</title>
	<style>
		tspan { white-space:pre }
		.shp0 { fill: #ffffff } 
		.shp1 { fill: #7289da } 
	</style>
	<path id="Path 0" class="shp0" d="M282 103.07C278.43 103.57 270.32 104.7 264 105.58C257.68 106.47 246.43 108.7 239 110.55C231.57 112.39 221.68 115.22 217 116.84C212.32 118.46 204.68 121.43 200 123.45C195.32 125.46 187.68 129.17 183 131.69C178.32 134.2 170.23 139.1 165 142.56C159.77 146.03 151.76 152.16 147.19 156.18C142.62 160.21 135.71 167.1 131.83 171.5C127.94 175.9 122.63 182.65 120.02 186.5C117.41 190.35 113.22 197.32 110.71 202C108.19 206.68 104.76 213.99 103.07 218.25C101.38 222.51 98.86 230.39 97.47 235.75C96.08 241.11 94.28 250.56 93.47 256.75C92.26 266.01 92 285.69 92.01 368.25C92.01 428.67 92.42 472.08 93.02 477.5C93.57 482.45 94.74 490.1 95.61 494.5C96.49 498.9 98.55 506.77 100.2 512C101.85 517.23 105.35 526 107.98 531.5C110.61 537 115.49 545.55 118.82 550.5C122.15 555.45 127.86 562.88 131.52 567C135.18 571.13 142.07 578.02 146.83 582.32C151.6 586.61 160.45 593.44 166.5 597.48C172.55 601.52 183.8 607.92 191.5 611.7C199.2 615.47 211.35 620.51 218.5 622.89C225.65 625.28 237.13 628.5 244 630.06C250.88 631.62 261.68 633.56 268 634.37C274.32 635.17 284.68 636.38 291 637.05C297.45 637.74 307.33 638.02 313.5 637.7C319.55 637.39 329.23 636.64 335 636.05C340.77 635.45 349.77 634.25 355 633.39C360.23 632.52 371.25 630.1 379.5 628.01C387.75 625.92 399.9 622.1 406.5 619.52C413.1 616.93 423.23 612.34 429 609.32C434.77 606.3 443.89 600.94 449.25 597.42C454.61 593.89 459 590.55 459 590C459 589.45 457.99 588.78 456.75 588.51C455.51 588.25 453.26 588.02 451.75 588.01C450.24 588.01 444.16 585.51 438.25 582.47C432.34 579.42 427.16 576.27 426.75 575.47C426.28 574.56 423.91 573.81 420.5 573.5L415 573L415 561C402.32 555.08 399.56 553.15 398.6 551.25C397.82 549.74 396.01 547.38 394.57 546C393.13 544.63 391.97 543.05 391.99 542.5C392.01 541.95 389.99 539.48 387.5 537C385.01 534.52 382.96 531.83 382.94 531C382.93 530.17 381.59 528.04 379.96 526.25C378.33 524.46 377 522.44 376.99 521.75C376.99 521.06 375.19 519.49 372.99 518.25C370.8 517.01 369 515.33 369 514.5C369 513.67 368.1 512.21 366.99 511.25C365.89 510.29 364.98 508.6 364.98 507.5C364.97 506.4 364.56 504.83 364.06 504C363.28 502.71 362.35 502.87 357.33 505.17C354.12 506.64 348.8 508.72 345.5 509.8C342.2 510.88 334.77 512.55 329 513.52C320.73 514.9 315.11 515.16 302.5 514.73C291.1 514.33 284.06 513.57 278 512.06C273.32 510.9 266.57 508.84 263 507.5C259.43 506.15 253.7 503.35 250.27 501.27C246.84 499.2 242.12 495.9 239.77 493.93C237.42 491.97 233.72 487.7 231.55 484.43C229.38 481.17 226.79 475.91 225.8 472.75C224.12 467.38 224 460.62 223.99 369.75C223.98 287.45 224.2 271.73 225.44 267.5C226.24 264.75 228.13 260.25 229.63 257.5C231.13 254.75 235.54 249.35 239.43 245.49C244.04 240.93 249.11 237.13 254 234.58C258.13 232.43 264.65 229.61 268.5 228.32C272.35 227.03 278.88 225.33 283 224.55C287.13 223.78 294.33 222.84 299 222.47C303.67 222.1 312.45 222.28 318.5 222.86C324.55 223.44 333.77 225 339 226.32C344.23 227.64 352.33 230.51 357 232.7C361.67 234.89 367.64 238.33 370.25 240.34L375 244C379.26 235.3 381.29 232.37 382.25 231.89C383.21 231.4 385.11 229.09 386.46 226.75C387.82 224.41 394.8 216.65 401.97 209.5L415.01 196.5L415 181C428.28 174.4 428.86 173.79 439.5 158.99L450.5 143.69C445.85 140.06 439.79 136.42 434.03 133.26C428.27 130.09 420.17 126 416.03 124.16C411.89 122.32 401.98 118.63 394 115.96C386.02 113.29 372.75 109.76 364.5 108.11C356.25 106.46 345.23 104.57 340 103.91C334.77 103.25 321.05 102.59 309.5 102.44C297.95 102.29 285.57 102.57 282 103.07Z" />
	<path id="Path 0" class="shp1" d="M634.8 83.76C633.2 84.13 628.71 85.06 624.83 85.83C620.94 86.6 614.21 88.36 609.87 89.73C605.53 91.1 598.24 94.03 593.67 96.24C589.1 98.44 582.83 101.96 579.75 104.05L574.14 107.85C560.3 104.76 552.54 103.24 547.97 102.47C541.73 101.43 534.37 101.08 518.47 101.07C499.13 101.06 496.23 101.25 485.24 103.25C478.61 104.46 468.89 106.53 463.63 107.85C458.38 109.18 450.15 111.61 445.35 113.26C440.55 114.91 431.77 118.6 425.83 121.47C419.89 124.33 410.91 129.23 405.89 132.34C400.86 135.46 394.69 139.53 392.18 141.39C389.66 143.26 384.43 147.46 380.54 150.74C376.66 154.01 369.36 160.93 364.31 166.13C359.27 171.32 352.49 179.12 349.24 183.46C345.99 187.8 340.22 196.22 336.43 202.16C332.63 208.1 327.2 217.82 324.35 223.76C321.5 229.7 317.26 239.42 314.94 245.36C312.61 251.3 309.43 260.65 307.87 266.13C306.3 271.62 304.09 280.22 302.94 285.25C301.79 290.27 300.1 298.69 299.17 303.94C298.24 309.2 296.83 319.29 296.03 326.37C294.92 336.19 294.58 345.98 294.58 367.5C294.59 384.2 295.03 400.17 295.66 406.56C296.25 412.5 297.83 423.9 299.17 431.9C300.52 439.9 302.97 451.86 304.63 458.49C306.28 465.11 309.69 476.52 312.2 483.83C314.71 491.14 318.25 500.49 320.06 504.6C321.86 508.71 325.56 516.38 328.26 521.63C330.97 526.89 336.46 536.32 340.45 542.59C344.45 548.87 350.9 557.99 354.79 562.86C358.67 567.74 367.27 576.97 373.9 583.37C383.09 592.26 388.6 596.78 397.16 602.45C403.33 606.53 412.49 611.85 417.52 614.27C422.55 616.68 430.21 619.98 434.55 621.6C438.89 623.22 446.56 625.7 451.58 627.11C456.61 628.52 464.46 630.4 469.03 631.28C473.6 632.15 482.95 633.46 489.81 634.18C497.59 634.99 510.06 635.48 523.04 635.48C543.33 635.48 544.15 635.42 558.35 632.63C566.35 631.06 576.26 628.84 580.37 627.69C584.49 626.54 590.66 624.6 594.08 623.38C597.51 622.16 604.8 618.99 610.29 616.34C615.77 613.69 624.18 609.02 628.98 605.97C633.78 602.92 642.17 596.81 647.63 592.39C653.08 587.98 661.08 580.44 665.41 575.64C669.73 570.84 676.06 562.99 679.46 558.19C682.87 553.4 687.74 545.92 690.3 541.58C692.85 537.23 696.71 529.94 698.88 525.37C701.05 520.8 704.36 512.58 706.24 507.09C708.12 501.61 710.64 492.45 711.84 486.74C713.69 477.97 714.03 474.22 714.04 462.64C714.06 450.05 713.88 448.39 711.88 442.28C710.66 438.6 707.87 432.86 705.59 429.41C703.34 425.98 699.48 421.38 697.02 419.19C694.56 416.99 689.39 413.63 685.54 411.71L678.54 408.22L653.49 408.22C642.22 413.64 638.81 416.04 635.62 419.31C632.63 422.39 629.58 426.87 626.77 432.31C624.41 436.88 620 447.35 616.96 455.58C613.92 463.8 609.62 474.27 607.39 478.84C605.16 483.41 601.49 489.96 599.23 493.38C596.98 496.81 592.18 502.77 588.58 506.62C584.98 510.47 579.04 515.84 575.39 518.55C571.73 521.27 566.12 524.8 562.92 526.4C559.73 528.01 553.18 530.67 548.38 532.33L539.66 535.34L493.13 535.34C478.96 530.43 471.67 527.34 467.79 525.32C463.9 523.3 457.55 519.28 453.66 516.39C449.78 513.5 444.31 508.54 441.52 505.38C438.72 502.21 434.25 496.25 431.58 492.14C428.91 488.02 424.89 480.73 422.64 475.94C420.38 471.14 417.09 462.82 415.33 457.45C413.56 452.08 411.01 442.17 409.66 435.43C408.31 428.69 406.72 419.81 406.13 415.7C405.37 410.43 405.06 397.17 405.08 370.83C405.1 333.85 405.13 333.29 407.39 320.14C408.65 312.83 410.64 302.92 411.82 298.12C413 293.33 415.07 286.03 416.42 281.92C417.78 277.81 421.03 269.96 423.65 264.47C426.27 258.99 430.22 251.7 432.43 248.27C434.64 244.84 438.59 239.42 441.22 236.22C443.84 233.02 448.56 227.94 451.7 224.92C454.83 221.9 460.58 217.38 464.46 214.89C468.35 212.39 474.14 209.2 477.34 207.8C480.54 206.41 487.08 204.28 491.88 203.08C496.68 201.87 504.16 200.64 508.5 200.33C516.11 199.79 516.37 199.82 515.65 201.38C515.24 202.26 514.74 209.72 514.52 217.94C514.2 230.72 514.41 234.48 515.96 243.7C516.96 249.64 519.11 258.62 520.73 263.64C522.36 268.67 525.88 277.08 528.57 282.34C531.26 287.59 535.97 295.41 539.05 299.7C542.13 304 547.82 310.76 551.71 314.73C555.59 318.7 563.07 325.14 568.33 329.03C573.58 332.93 587.98 343.26 600.31 351.98L622.75 367.85C642.47 339.89 648.55 331.68 648.98 331.57C649.4 331.45 660.5 338.96 673.64 348.24C686.78 357.52 701.27 367.7 705.84 370.86C710.41 374.02 715.46 377.06 717.06 377.62C718.65 378.19 721.46 378.67 723.29 378.69C725.11 378.72 728.48 378.2 730.76 377.54C733.51 376.75 736.42 374.99 739.34 372.34C742.5 369.48 744.22 367.09 745.37 363.97C746.25 361.57 746.97 358.21 746.98 356.49C746.98 354.78 746.42 351.42 745.73 349.02C744.96 346.35 743.26 343.33 741.36 341.24C739.65 339.37 724.32 327.96 707.29 315.9C690.27 303.84 676.34 293.6 676.34 293.14C676.34 292.68 687.96 275.95 702.17 255.96L727.99 219.6C770.07 249.11 785.27 259.69 788.93 262.15C794.56 265.93 796.33 266.69 800.56 267.11C804.24 267.48 806.74 267.22 810.12 266.1C812.88 265.18 816.12 263.25 818.31 261.21C820.31 259.35 822.74 256.33 823.71 254.5C825.08 251.9 825.47 249.73 825.45 244.53C825.44 238.72 825.13 237.33 822.97 233.47C821.23 230.36 818.79 227.79 814.68 224.75C811.48 222.38 796.8 211.84 782.05 201.33C767.3 190.81 755.25 181.93 755.26 181.59C755.27 181.25 760.9 173.02 767.78 163.31C774.65 153.6 780.18 145.28 780.06 144.82C779.93 144.37 768.79 136.17 755.3 126.6C741.8 117.04 727.21 106.88 722.87 104.02C718.53 101.16 711.61 97.26 707.5 95.35C703.39 93.44 696.84 90.84 692.96 89.57C689.07 88.3 680.94 86.28 674.89 85.09C665.65 83.27 661.77 82.94 650.79 83.01C643.59 83.06 636.4 83.4 634.8 83.76Z" />
</svg>