<svg version="1.2" baseProfile="tiny-ps" xmlns="http://www.w3.org/2000/svg" viewBox="0 0 830 720" width="14" height="12">
	<title>New Project</title>
	<style>
		tspan { white-space:pre }
		.shp0 { fill: #ffffff } 
		.shp1 { fill: #7289da } 
	</style>
	<path id="Path 0" class="shp0" d="M209 130.07C205.43 130.57 197.32 131.7 191 132.58C184.68 133.47 173.43 135.7 166 137.55C158.57 139.39 148.68 142.22 144 143.84C139.32 145.46 131.68 148.43 127 150.45C122.32 152.46 114.68 156.17 110 158.69C105.32 161.2 97.23 166.1 92 169.56C86.77 173.03 78.76 179.16 74.19 183.18C69.62 187.21 62.71 194.1 58.83 198.5C54.94 202.9 49.63 209.65 47.02 213.5C44.41 217.35 40.22 224.32 37.71 229C35.19 233.68 31.76 240.99 30.07 245.25C28.38 249.51 25.86 257.39 24.47 262.75C23.08 268.11 21.28 277.56 20.47 283.75C19.26 293.01 19 312.69 19.01 395.25C19.01 455.67 19.42 499.08 20.02 504.5C20.57 509.45 21.74 517.1 22.61 521.5C23.49 525.9 25.55 533.77 27.2 539C28.85 544.23 32.35 553 34.98 558.5C37.61 564 42.49 572.55 45.82 577.5C49.15 582.45 54.86 589.88 58.52 594C62.18 598.13 69.07 605.02 73.83 609.32C78.6 613.61 87.45 620.44 93.5 624.48C99.55 628.52 110.8 634.92 118.5 638.7C126.2 642.47 138.35 647.51 145.5 649.89C152.65 652.28 164.13 655.5 171 657.06C177.88 658.62 188.68 660.56 195 661.37C201.32 662.17 211.68 663.38 218 664.05C224.45 664.74 234.33 665.02 240.5 664.7C246.55 664.39 256.23 663.64 262 663.05C267.77 662.45 276.77 661.25 282 660.39C287.23 659.52 298.25 657.1 306.5 655.01C314.75 652.92 326.9 649.1 333.5 646.52C340.1 643.93 350.23 639.34 356 636.32C361.77 633.3 370.89 627.94 376.25 624.42C381.61 620.89 386 617.55 386 617C386 616.45 384.99 615.78 383.75 615.51C382.51 615.25 380.26 615.02 378.75 615.01C377.24 615.01 371.16 612.51 365.25 609.47C359.34 606.42 354.16 603.27 353.75 602.47C353.28 601.56 350.91 600.81 347.5 600.5L342 600L342 588C329.32 582.08 326.56 580.15 325.6 578.25C324.82 576.74 323.01 574.38 321.57 573C320.13 571.63 318.97 570.05 318.99 569.5C319.01 568.95 316.99 566.48 314.5 564C312.01 561.52 309.96 558.83 309.94 558C309.93 557.17 308.59 555.04 306.96 553.25C305.33 551.46 304 549.44 303.99 548.75C303.99 548.06 302.19 546.49 299.99 545.25C297.8 544.01 296 542.33 296 541.5C296 540.67 295.1 539.21 293.99 538.25C292.89 537.29 291.98 535.6 291.98 534.5C291.97 533.4 291.56 531.83 291.06 531C290.28 529.71 289.35 529.87 284.33 532.17C281.12 533.64 275.8 535.72 272.5 536.8C269.2 537.88 261.77 539.55 256 540.52C247.73 541.9 242.11 542.16 229.5 541.73C218.1 541.33 211.06 540.57 205 539.06C200.32 537.9 193.57 535.84 190 534.5C186.43 533.15 180.7 530.35 177.27 528.27C173.84 526.2 169.12 522.9 166.77 520.93C164.42 518.97 160.72 514.7 158.55 511.43C156.38 508.17 153.79 502.91 152.8 499.75C151.12 494.38 151 487.62 150.99 396.75C150.98 314.45 151.2 298.73 152.44 294.5C153.24 291.75 155.13 287.25 156.63 284.5C158.13 281.75 162.54 276.35 166.43 272.49C171.04 267.93 176.11 264.13 181 261.58C185.13 259.43 191.65 256.61 195.5 255.32C199.35 254.03 205.88 252.33 210 251.55C214.13 250.78 221.33 249.84 226 249.47C230.67 249.1 239.45 249.28 245.5 249.86C251.55 250.44 260.77 252 266 253.32C271.23 254.64 279.33 257.51 284 259.7C288.67 261.89 294.64 265.33 297.25 267.34L302 271C306.26 262.3 308.29 259.37 309.25 258.89C310.21 258.4 312.11 256.09 313.46 253.75C314.82 251.41 321.8 243.65 328.97 236.5L342.01 223.5L342 208C355.28 201.4 355.86 200.79 366.5 185.99L377.5 170.69C372.85 167.06 366.79 163.42 361.03 160.26C355.27 157.09 347.17 153 343.03 151.16C338.89 149.32 328.98 145.63 321 142.96C313.02 140.29 299.75 136.76 291.5 135.11C283.25 133.46 272.23 131.57 267 130.91C261.77 130.25 248.05 129.59 236.5 129.44C224.95 129.29 212.57 129.57 209 130.07Z" />
	<path id="Path 0" class="shp1" d="M561.8 110.76C560.2 111.13 555.71 112.06 551.83 112.83C547.94 113.6 541.21 115.36 536.87 116.73C532.53 118.1 525.24 121.03 520.67 123.24C516.1 125.44 509.83 128.96 506.75 131.05L501.14 134.85C487.3 131.76 479.54 130.24 474.97 129.47C468.73 128.43 461.37 128.08 445.47 128.07C426.13 128.06 423.23 128.25 412.24 130.25C405.61 131.46 395.89 133.53 390.63 134.85C385.38 136.18 377.15 138.61 372.35 140.26C367.55 141.91 358.77 145.6 352.83 148.47C346.89 151.33 337.91 156.23 332.89 159.34C327.86 162.46 321.69 166.53 319.18 168.39C316.66 170.26 311.43 174.46 307.54 177.74C303.66 181.01 296.36 187.93 291.31 193.13C286.27 198.32 279.49 206.12 276.24 210.46C272.99 214.8 267.22 223.22 263.43 229.16C259.63 235.1 254.2 244.82 251.35 250.76C248.5 256.7 244.26 266.42 241.94 272.36C239.61 278.3 236.43 287.65 234.87 293.13C233.3 298.62 231.09 307.22 229.94 312.25C228.79 317.27 227.1 325.69 226.17 330.94C225.24 336.2 223.83 346.29 223.03 353.37C221.92 363.19 221.58 372.98 221.58 394.5C221.59 411.2 222.03 427.17 222.66 433.56C223.25 439.5 224.83 450.9 226.17 458.9C227.52 466.9 229.97 478.86 231.63 485.49C233.28 492.11 236.69 503.52 239.2 510.83C241.71 518.14 245.25 527.49 247.06 531.6C248.86 535.71 252.56 543.38 255.26 548.63C257.97 553.89 263.46 563.32 267.45 569.59C271.45 575.87 277.9 584.99 281.79 589.86C285.67 594.74 294.27 603.97 300.9 610.37C310.09 619.26 315.6 623.78 324.16 629.45C330.33 633.53 339.49 638.85 344.52 641.27C349.55 643.68 357.21 646.98 361.55 648.6C365.89 650.22 373.56 652.7 378.58 654.11C383.61 655.52 391.46 657.4 396.03 658.28C400.6 659.15 409.95 660.46 416.81 661.18C424.59 661.99 437.06 662.48 450.04 662.48C470.33 662.48 471.15 662.42 485.35 659.63C493.35 658.06 503.26 655.84 507.37 654.69C511.49 653.54 517.66 651.6 521.08 650.38C524.51 649.16 531.8 645.99 537.29 643.34C542.77 640.69 551.18 636.02 555.98 632.97C560.78 629.92 569.17 623.81 574.63 619.39C580.08 614.98 588.08 607.44 592.41 602.64C596.73 597.84 603.06 589.99 606.46 585.19C609.87 580.4 614.74 572.92 617.3 568.58C619.85 564.23 623.71 556.94 625.88 552.37C628.05 547.8 631.36 539.58 633.24 534.09C635.12 528.61 637.64 519.45 638.84 513.74C640.69 504.97 641.03 501.22 641.04 489.64C641.06 477.05 640.88 475.39 638.88 469.28C637.66 465.6 634.87 459.86 632.59 456.41C630.34 452.98 626.48 448.38 624.02 446.19C621.56 443.99 616.39 440.63 612.54 438.71L605.54 435.22L580.49 435.22C569.22 440.64 565.81 443.04 562.62 446.31C559.63 449.39 556.58 453.87 553.77 459.31C551.41 463.88 547 474.35 543.96 482.58C540.92 490.8 536.62 501.27 534.39 505.84C532.16 510.41 528.49 516.96 526.23 520.38C523.98 523.81 519.18 529.77 515.58 533.62C511.98 537.47 506.04 542.84 502.39 545.55C498.73 548.27 493.12 551.8 489.92 553.4C486.73 555.01 480.18 557.67 475.38 559.33L466.66 562.34L420.13 562.34C405.96 557.43 398.67 554.34 394.79 552.32C390.9 550.3 384.55 546.28 380.66 543.39C376.78 540.5 371.31 535.54 368.52 532.38C365.72 529.21 361.25 523.25 358.58 519.14C355.91 515.02 351.89 507.73 349.64 502.94C347.38 498.14 344.09 489.82 342.33 484.45C340.56 479.08 338.01 469.17 336.66 462.43C335.31 455.69 333.72 446.81 333.13 442.7C332.37 437.43 332.06 424.17 332.08 397.83C332.1 360.85 332.13 360.29 334.39 347.14C335.65 339.83 337.64 329.92 338.82 325.12C340 320.33 342.07 313.03 343.42 308.92C344.78 304.81 348.03 296.96 350.65 291.47C353.27 285.99 357.22 278.7 359.43 275.27C361.64 271.84 365.59 266.42 368.22 263.22C370.84 260.02 375.56 254.94 378.7 251.92C381.83 248.9 387.58 244.38 391.46 241.89C395.35 239.39 401.14 236.2 404.34 234.8C407.54 233.41 414.08 231.28 418.88 230.08C423.68 228.87 431.16 227.64 435.5 227.33C443.11 226.79 443.37 226.82 442.65 228.38C442.24 229.26 441.74 236.72 441.52 244.94C441.2 257.72 441.41 261.48 442.96 270.7C443.96 276.64 446.11 285.62 447.73 290.64C449.36 295.67 452.88 304.08 455.57 309.34C458.26 314.59 462.97 322.41 466.05 326.7C469.13 331 474.82 337.76 478.71 341.73C482.59 345.7 490.07 352.14 495.33 356.03C500.58 359.93 514.98 370.26 527.31 378.98L549.75 394.85C569.47 366.89 575.55 358.68 575.98 358.57C576.4 358.45 587.5 365.96 600.64 375.24C613.78 384.52 628.27 394.7 632.84 397.86C637.41 401.02 642.46 404.06 644.06 404.62C645.65 405.19 648.46 405.67 650.29 405.69C652.11 405.72 655.48 405.2 657.76 404.54C660.51 403.75 663.42 401.99 666.34 399.34C669.5 396.48 671.22 394.09 672.37 390.97C673.25 388.57 673.97 385.21 673.98 383.49C673.98 381.78 673.42 378.42 672.73 376.02C671.96 373.35 670.26 370.33 668.36 368.24C666.65 366.37 651.32 354.96 634.29 342.9C617.27 330.84 603.34 320.6 603.34 320.14C603.34 319.68 614.96 302.95 629.17 282.96L654.99 246.6C697.07 276.11 712.27 286.69 715.93 289.15C721.56 292.93 723.33 293.69 727.56 294.11C731.24 294.48 733.74 294.22 737.12 293.1C739.88 292.18 743.12 290.25 745.31 288.21C747.31 286.35 749.74 283.33 750.71 281.5C752.08 278.9 752.47 276.73 752.45 271.53C752.44 265.72 752.13 264.33 749.97 260.47C748.23 257.36 745.79 254.79 741.68 251.75C738.48 249.38 723.8 238.84 709.05 228.33C694.3 217.81 682.25 208.93 682.26 208.59C682.27 208.25 687.9 200.02 694.78 190.31C701.65 180.6 707.18 172.28 707.06 171.82C706.93 171.37 695.79 163.17 682.3 153.6C668.8 144.04 654.21 133.88 649.87 131.02C645.53 128.16 638.61 124.26 634.5 122.35C630.39 120.44 623.84 117.84 619.96 116.57C616.07 115.3 607.94 113.28 601.89 112.09C592.65 110.27 588.77 109.94 577.79 110.01C570.59 110.06 563.4 110.4 561.8 110.76Z" />
</svg>