<svg version="1.2" baseProfile="tiny-ps" xmlns="http://www.w3.org/2000/svg" viewBox="0 0 828 820" width="24" height="24">
	<title>Logo_transparent-svg</title>
	<style>
		tspan { white-space:pre }
		.shp0 { fill: #25373d } 
		.shp1 { fill: #ffffff } 
		.shp2 { fill: #2cc990 } 
		.shp3 { fill: #4b9699 } 
	</style>
	<g id="logo">
		<g id="ehexagon">
			<path id="hexagon" class="shp0" d="M0.24 523.86L170.76 228.5L511.82 228.5L682.35 523.86L511.82 819.22L170.76 819.22L0.24 523.86Z" />
			<path id="e" fill-rule="evenodd" class="shp1" d="M262.34 633.48C286.73 655.67 315.12 665.75 347.51 663.71C379.9 661.67 406.88 648.11 428.47 623.04L487.51 676.74C451.7 718.35 406.64 740.86 352.31 744.28C297.98 747.7 250.58 731 210.11 694.19C169.64 657.37 147.74 611.03 144.42 555.17C141.1 499.31 157.34 450.57 193.14 408.97C228.94 367.36 274.01 344.85 328.34 341.43C382.67 338.01 430.07 354.71 470.54 391.53C523.24 439.97 544.89 499.8 535.49 571.02L231.44 590.14C238.73 606.94 249.03 621.38 262.33 633.49L262.34 633.48ZM418.3 452.23C393.91 430.04 365.52 419.97 333.13 422C300.74 424.04 273.76 437.6 252.18 462.68C239.95 477.46 231.44 493.1 226.65 509.57L449.2 495.57C443.01 479.79 432.71 465.34 418.3 452.23L418.3 452.23Z" />
		</g>
		<g id="ears">
			<g id="left">
				<path id="lefttop" fill-rule="evenodd" class="shp2" d="M342.76 68.5C355.76 49.5 386.76 0.5 416.76 0.5C453.76 0.5 461.76 86.5 462.76 140.5L342.76 68.5Z" />
				<path id="leftbot" fill-rule="evenodd" class="shp3" d="M281.76 177.5L336.76 172.5C384.76 101.5 401.76 105.5 408.76 178.5L463.76 189.5C463.43 173.17 463.09 156.83 462.76 140.5C440.76 125.5 428.76 112.5 408.76 96.5C394.76 84.5 368.76 71.5 342.76 68.5C319.76 105.5 304.76 130.5 281.76 177.5L281.76 177.5Z" />
			</g>
			<g id="right">
				<path id="righttop" fill-rule="evenodd" class="shp2" d="M711.76 255.5C770.76 247.5 827.76 253.5 827.76 290.5C827.76 333.5 752.76 395.5 738.76 409.5C720.76 368.5 728.76 304.5 711.76 255.5Z" />
				<path id="Layer" fill-rule="evenodd" class="shp3" d="M599.76 280.5L636.76 318.5C713.76 313.5 739.76 330.5 681.76 383.5L709.76 434.5C722.76 423.5 727.76 419.5 738.76 409.5C726.76 375.5 748.76 372.5 748.76 328.5C748.76 309.5 745.76 288.5 711.76 255.5C682.76 258.5 648.76 264.5 599.76 280.5Z" />
			</g>
		</g>
	</g>
</svg>