<svg version="1.2" baseProfile="tiny-ps" xmlns="http://www.w3.org/2000/svg" viewBox="0 0 1024 1024" width="1024" height="1024">
	<title>Logo_transparent-svg</title>
	<style>
		tspan { white-space:pre }
		.shp0 { fill: #25373d } 
		.shp1 { fill: #ffffff } 
		.shp2 { fill: #2cc990 } 
		.shp3 { fill: #4b9699 } 
	</style>
	<g id="logo">
		<g id="ehexagon">
			<path id="hexagon" class="shp0" d="M98.24 585.86L268.76 290.5L609.82 290.5L780.35 585.86L609.82 881.22L268.76 881.22L98.24 585.86Z" />
			<path id="e" fill-rule="evenodd" class="shp1" d="M360.34 695.48C384.73 717.67 413.12 727.75 445.51 725.71C477.9 723.67 504.88 710.11 526.47 685.04L585.51 738.74C549.7 780.35 504.64 802.86 450.31 806.28C395.98 809.7 348.58 793 308.11 756.19C267.64 719.37 245.74 673.03 242.42 617.17C239.1 561.31 255.34 512.57 291.14 470.97C326.94 429.36 372.01 406.85 426.34 403.43C480.67 400.01 528.07 416.71 568.54 453.53C621.24 501.97 642.89 561.8 633.49 633.02L329.44 652.14C336.73 668.94 347.03 683.38 360.33 695.49L360.34 695.48ZM516.3 514.23C491.91 492.04 463.52 481.97 431.13 484C398.74 486.04 371.76 499.6 350.18 524.68C337.95 539.46 329.44 555.1 324.65 571.57L547.2 557.57C541.01 541.79 530.71 527.34 516.3 514.23L516.3 514.23Z" />
		</g>
		<g id="ears">
			<g id="left">
				<path id="lefttop" fill-rule="evenodd" class="shp2" d="M440.76 130.5C453.76 111.5 484.76 62.5 514.76 62.5C551.76 62.5 559.76 148.5 560.76 202.5L440.76 130.5Z" />
				<path id="leftbot" fill-rule="evenodd" class="shp3" d="M379.76 239.5L434.76 234.5C482.76 163.5 499.76 167.5 506.76 240.5L561.76 251.5C561.43 235.17 561.09 218.83 560.76 202.5C538.76 187.5 526.76 174.5 506.76 158.5C492.76 146.5 466.76 133.5 440.76 130.5C417.76 167.5 402.76 192.5 379.76 239.5L379.76 239.5Z" />
			</g>
			<g id="right">
				<path id="righttop" fill-rule="evenodd" class="shp2" d="M809.76 317.5C868.76 309.5 925.76 315.5 925.76 352.5C925.76 395.5 850.76 457.5 836.76 471.5C818.76 430.5 826.76 366.5 809.76 317.5Z" />
				<path id="Layer" fill-rule="evenodd" class="shp3" d="M697.76 342.5L734.76 380.5C811.76 375.5 837.76 392.5 779.76 445.5L807.76 496.5C820.76 485.5 825.76 481.5 836.76 471.5C824.76 437.5 846.76 434.5 846.76 390.5C846.76 371.5 843.76 350.5 809.76 317.5C780.76 320.5 746.76 326.5 697.76 342.5Z" />
			</g>
		</g>
	</g>
</svg>